<svg viewBox="0 0 880 640" xmlns="http://www.w3.org/2000/svg" font-family="system-ui, -apple-system, 'Segoe UI', sans-serif">
<style>
.surface { fill:#fcfcfb; stroke:rgba(11,11,11,0.10); }
.title { font-size:19px; font-weight:700; fill:#0b0b0b; }
.sub { font-size:12.5px; fill:#52514e; }
.cat { font-size:11.5px; fill:#52514e; }
.val { font-size:10.5px; fill:#52514e; font-variant-numeric:tabular-nums; }
.tick { font-size:11px; fill:#898781; font-variant-numeric:tabular-nums; }
.leg { font-size:12px; fill:#52514e; }
.grid { stroke:#e1e0d9; stroke-dasharray:2,3; }
.baseline { stroke:#c3c2b7; }
.s1 { fill:#2a78d6; }
.s2 { fill:#1baf7a; }

@media (prefers-color-scheme: dark) {
.surface { fill:#1a1a19; stroke:rgba(255,255,255,0.10); }
.title { font-size:19px; font-weight:700; fill:#ffffff; }
.sub { font-size:12.5px; fill:#c3c2b7; }
.cat { font-size:11.5px; fill:#c3c2b7; }
.val { font-size:10.5px; fill:#c3c2b7; font-variant-numeric:tabular-nums; }
.tick { font-size:11px; fill:#898781; font-variant-numeric:tabular-nums; }
.leg { font-size:12px; fill:#c3c2b7; }
.grid { stroke:#2c2c2a; stroke-dasharray:2,3; }
.baseline { stroke:#383835; }
.s1 { fill:#3987e5; }
.s2 { fill:#199e70; }
}

</style>
<rect class="surface" x="1" y="1" width="878" height="638" rx="14"/>
<text class="title" x="32" y="44">Algorithm comparison — best-match scores</text>
<text class="sub" x="32" y="66">10-record company-name fixture: typos, legal-suffix variants, one rename, one acronym</text>
<rect class="s1" x="618" y="35" width="12" height="12" rx="3"/>
<text class="leg" x="638" y="45">Levenshtein WRatio</text>
<rect class="s2" x="618" y="57" width="12" height="12" rx="3"/>
<text class="leg" x="638" y="67">TF-IDF Cosine</text>
<line class="baseline" x1="172.0" y1="96" x2="172.0" y2="608"/>
<text class="tick" x="172.0" y="626" text-anchor="middle">0</text>
<line class="grid" x1="307.2" y1="96" x2="307.2" y2="608"/>
<text class="tick" x="307.2" y="626" text-anchor="middle">20</text>
<line class="grid" x1="442.4" y1="96" x2="442.4" y2="608"/>
<text class="tick" x="442.4" y="626" text-anchor="middle">40</text>
<line class="grid" x1="577.6" y1="96" x2="577.6" y2="608"/>
<text class="tick" x="577.6" y="626" text-anchor="middle">60</text>
<line class="grid" x1="712.8" y1="96" x2="712.8" y2="608"/>
<text class="tick" x="712.8" y="626" text-anchor="middle">80</text>
<line class="grid" x1="848.0" y1="96" x2="848.0" y2="608"/>
<text class="tick" x="848.0" y="626" text-anchor="middle">100</text>
<text class="cat" x="160" y="132.0" text-anchor="end">Oracle Corporation</text>
<path class="s1" d="M 172 115.0 h 578.0 a 4 4 0 0 1 4 4 v 5 a 4 4 0 0 1 -4 4 h -578.0 Z"/>
<text class="val" x="762.0" y="124.5">86.1</text>
<path class="s2" d="M 172 130.0 h 500.0 a 4 4 0 0 1 4 4 v 5 a 4 4 0 0 1 -4 4 h -500.0 Z"/>
<text class="val" x="684.0" y="139.5">74.5</text>
<text class="cat" x="160" y="182.0" text-anchor="end">Twitter Inc.</text>
<path class="s1" d="M 172 165.0 h 559.3 a 4 4 0 0 1 4 4 v 5 a 4 4 0 0 1 -4 4 h -559.3 Z"/>
<text class="val" x="743.3" y="174.5">83.3</text>
<path class="s2" d="M 172 180.0 h 471.8 a 4 4 0 0 1 4 4 v 5 a 4 4 0 0 1 -4 4 h -471.8 Z"/>
<text class="val" x="655.8" y="189.5">70.4</text>
<text class="cat" x="160" y="232.0" text-anchor="end">Microsoft Corporation</text>
<path class="s1" d="M 172 215.0 h 557.6 a 4 4 0 0 1 4 4 v 5 a 4 4 0 0 1 -4 4 h -557.6 Z"/>
<text class="val" x="741.6" y="224.5">83.1</text>
<path class="s2" d="M 172 230.0 h 408.4 a 4 4 0 0 1 4 4 v 5 a 4 4 0 0 1 -4 4 h -408.4 Z"/>
<text class="val" x="592.4" y="239.5">61.0</text>
<text class="cat" x="160" y="282.0" text-anchor="end">Tesla Motors</text>
<path class="s1" d="M 172 265.0 h 527.1 a 4 4 0 0 1 4 4 v 5 a 4 4 0 0 1 -4 4 h -527.1 Z"/>
<text class="val" x="711.1" y="274.5">78.6</text>
<path class="s2" d="M 172 280.0 h 401.5 a 4 4 0 0 1 4 4 v 5 a 4 4 0 0 1 -4 4 h -401.5 Z"/>
<text class="val" x="585.5" y="289.5">60.0</text>
<text class="cat" x="160" y="332.0" text-anchor="end">Google LLC</text>
<path class="s1" d="M 172 315.0 h 525.0 a 4 4 0 0 1 4 4 v 5 a 4 4 0 0 1 -4 4 h -525.0 Z"/>
<text class="val" x="709.0" y="324.5">78.3</text>
<path class="s2" d="M 172 330.0 h 456.6 a 4 4 0 0 1 4 4 v 5 a 4 4 0 0 1 -4 4 h -456.6 Z"/>
<text class="val" x="640.6" y="339.5">68.1</text>
<text class="cat" x="160" y="382.0" text-anchor="end">Apple Inc.</text>
<path class="s1" d="M 172 365.0 h 508.3 a 4 4 0 0 1 4 4 v 5 a 4 4 0 0 1 -4 4 h -508.3 Z"/>
<text class="val" x="692.3" y="374.5">75.8</text>
<path class="s2" d="M 172 380.0 h 216.6 a 4 4 0 0 1 4 4 v 5 a 4 4 0 0 1 -4 4 h -216.6 Z"/>
<text class="val" x="400.6" y="389.5">32.6</text>
<text class="cat" x="160" y="432.0" text-anchor="end">Amazon.com, Inc.</text>
<path class="s1" d="M 172 415.0 h 496.7 a 4 4 0 0 1 4 4 v 5 a 4 4 0 0 1 -4 4 h -496.7 Z"/>
<text class="val" x="680.7" y="424.5">74.1</text>
<path class="s2" d="M 172 430.0 h 451.5 a 4 4 0 0 1 4 4 v 5 a 4 4 0 0 1 -4 4 h -451.5 Z"/>
<text class="val" x="635.5" y="439.5">67.4</text>
<text class="cat" x="160" y="482.0" text-anchor="end">Netflix, Inc.</text>
<path class="s1" d="M 172 465.0 h 320.5 a 4 4 0 0 1 4 4 v 5 a 4 4 0 0 1 -4 4 h -320.5 Z"/>
<text class="val" x="504.5" y="474.5">48.0</text>
<path class="s2" d="M 172 480.0 h 534.6 a 4 4 0 0 1 4 4 v 5 a 4 4 0 0 1 -4 4 h -534.6 Z"/>
<text class="val" x="718.6" y="489.5">79.7</text>
<text class="cat" x="160" y="532.0" text-anchor="end">Facebook</text>
<path class="s1" d="M 172 515.0 h 300.2 a 4 4 0 0 1 4 4 v 5 a 4 4 0 0 1 -4 4 h -300.2 Z"/>
<text class="val" x="484.2" y="524.5">45.0</text>
<path class="s2" d="M 172 530.0 h 23.2 a 4 4 0 0 1 4 4 v 5 a 4 4 0 0 1 -4 4 h -23.2 Z"/>
<text class="val" x="207.2" y="539.5">4.0</text>
<text class="cat" x="160" y="582.0" text-anchor="end">IBM</text>
<path class="s1" d="M 172 565.0 h 300.2 a 4 4 0 0 1 4 4 v 5 a 4 4 0 0 1 -4 4 h -300.2 Z"/>
<text class="val" x="484.2" y="574.5">45.0</text>
<path class="s2" d="M 172 580.0 h 12.4 a 4 4 0 0 1 4 4 v 5 a 4 4 0 0 1 -4 4 h -12.4 Z"/>
<text class="val" x="196.4" y="589.5">2.4</text>
</svg>